Coordinates
version=1
nRows=37
nColumns=34
inDegrees=no

Units are S.I. units (second, meters, Newtons, ...)
If the header above contains a line with 'inDegrees', this indicates whether rotational values are in degrees (yes) or radians (no).

endheader
time	pelvis_tilt	pelvis_list	pelvis_rotation	pelvis_tx	pelvis_ty	pelvis_tz	hip_flexion_r	hip_adduction_r	hip_rotation_r	knee_angle_r	ankle_angle_r	subtalar_angle_r	mtp_angle_r	hip_flexion_l	hip_adduction_l	hip_rotation_l	knee_angle_l	ankle_angle_l	subtalar_angle_l	mtp_angle_l	lumbar_extension	lumbar_bending	lumbar_rotation	arm_flex_r	arm_add_r	arm_rot_r	elbow_flex_r	pro_sup_r	arm_flex_l	arm_add_l	arm_rot_l	elbow_flex_l	pro_sup_l
0	0.169059	-0.0413876	0.0249492	-1.07459	1.36577	-0.570442	-0.128295	0.0322675	-0.0253703	0.265076	0.260167	0.0636825	-0.129736	-0.152269	-0.107107	-0.168717	0.236288	0.32978	0.338722	-0.129736	-0.451912	0.057819	0.0091746	0.0971465	-0.254591	0.0887109	0.718217	1.68405	0.0311811	-0.250178	0.13906	0.836324	1.53826
0.01	0.164657	-0.0406602	0.0249994	-1.07417	1.36519	-0.570147	-0.121634	0.0321265	-0.0234471	0.269746	0.262842	0.0612769	-0.129736	-0.144934	-0.107077	-0.166199	0.241932	0.332238	0.340292	-0.129736	-0.451433	0.0562476	0.00911602	0.095063	-0.254604	0.0843991	0.7184	1.68942	0.0295694	-0.251347	0.136674	0.837567	1.54593
0.02	0.160224	-0.0397483	0.0248266	-1.07363	1.36459	-0.570144	-0.114803	0.0311976	-0.0228049	0.274808	0.265856	0.0607266	-0.129736	-0.138151	-0.10602	-0.164012	0.246741	0.334904	0.338199	-0.129736	-0.450837	0.0549211	0.00894766	0.0927777	-0.255494	0.0818737	0.719445	1.6886	0.0276764	-0.251995	0.134807	0.839729	1.54525
0.03	0.155762	-0.038887	0.0244715	-1.07304	1.364	-0.570277	-0.107885	0.0300455	-0.0225137	0.280008	0.268851	0.0608656	-0.129736	-0.131715	-0.104611	-0.162003	0.25097	0.337497	0.334487	-0.129736	-0.45027	0.0539753	0.00873783	0.0904451	-0.256832	0.0801619	0.720734	1.6874	0.0256488	-0.25233	0.132833	0.841601	1.5441
0.04	0.150945	-0.0383711	0.0240894	-1.07245	1.36339	-0.570338	-0.100663	0.0294183	-0.0215273	0.285006	0.27146	0.0601832	-0.129736	-0.124774	-0.103804	-0.160418	0.255431	0.340119	0.332365	-0.129736	-0.449494	0.0534461	0.00854149	0.0881067	-0.258088	0.0785066	0.721868	1.68822	0.0236219	-0.252734	0.130482	0.842435	1.54763
0.05	0.145454	-0.0380251	0.0240322	-1.07187	1.36274	-0.570325	-0.0928821	0.0291836	-0.0202965	0.289726	0.273774	0.0587278	-0.129736	-0.116778	-0.103514	-0.158935	0.260422	0.342828	0.331815	-0.129736	-0.448163	0.0530594	0.00806238	0.0856848	-0.259072	0.0768481	0.722746	1.68908	0.0215941	-0.253438	0.128621	0.843246	1.55008
0.06	0.139494	-0.0376751	0.0244501	-1.07123	1.36206	-0.570335	-0.0848295	0.0289625	-0.0197292	0.294191	0.276092	0.0575395	-0.129736	-0.108214	-0.103281	-0.156795	0.265506	0.345543	0.331237	-0.129736	-0.446472	0.0527485	0.00714387	0.0832238	-0.259796	0.0750881	0.723822	1.68397	0.0194835	-0.254364	0.127949	0.845641	1.54217
0.07	0.133749	-0.0373667	0.0249278	-1.07048	1.36141	-0.570391	-0.0772983	0.0286592	-0.0197627	0.298326	0.278617	0.0572407	-0.129736	-0.100327	-0.102887	-0.153706	0.26997	0.348002	0.329418	-0.129736	-0.445175	0.052569	0.00618213	0.0807993	-0.260255	0.0716822	0.723565	1.68863	0.017203	-0.254854	0.12582	0.845421	1.552
0.08	0.128136	-0.0370474	0.0250005	-1.06965	1.36078	-0.570455	-0.0701071	0.0282267	-0.019597	0.302217	0.28123	0.0572827	-0.129736	-0.0930572	-0.102239	-0.150238	0.273857	0.350191	0.326424	-0.129736	-0.444173	0.0523601	0.00561738	0.0782721	-0.260942	0.0687339	0.72407	1.68761	0.0148352	-0.255142	0.123188	0.84646	1.55358
0.09	0.121957	-0.036512	0.0249816	-1.06883	1.36013	-0.570518	-0.0623112	0.0275716	-0.0189075	0.306091	0.283534	0.0565546	-0.129736	-0.0850746	-0.10128	-0.146588	0.277873	0.352198	0.323239	-0.129736	-0.442856	0.051905	0.00511507	0.0756286	-0.261961	0.0669255	0.724749	1.68684	0.0126137	-0.255404	0.120465	0.847468	1.55443
0.1	0.114977	-0.0357927	0.025485	-1.06807	1.35944	-0.570608	-0.053565	0.0267938	-0.0182129	0.310102	0.285539	0.0551165	-0.129736	-0.0758042	-0.100149	-0.142316	0.282295	0.353907	0.320199	-0.129736	-0.441079	0.0514212	0.00412327	0.0729985	-0.263009	0.0656462	0.72547	1.68606	0.0106478	-0.255936	0.118542	0.848741	1.55292
0.11	0.107704	-0.0355205	0.0262143	-1.06725	1.35872	-0.570704	-0.044529	0.026538	-0.0176105	0.314147	0.287458	0.053606	-0.129736	-0.0661209	-0.0995279	-0.138307	0.286922	0.355775	0.317308	-0.129736	-0.439219	0.0515206	0.00304002	0.0702925	-0.26394	0.0636649	0.726029	1.68784	0.00856248	-0.256506	0.116326	0.84976	1.55342
0.12	0.10022	-0.0361553	0.0264074	-1.06625	1.35793	-0.570759	-0.0354075	0.0272711	-0.0166083	0.318083	0.28922	0.0519408	-0.129736	-0.0564029	-0.0999175	-0.135965	0.291764	0.358521	0.314844	-0.129736	-0.437094	0.0523925	0.00259772	0.0672999	-0.265004	0.0616276	0.726974	1.68806	0.00591494	-0.256748	0.112964	0.850861	1.55435
0.13	0.0920419	-0.0371676	0.0262203	-1.06517	1.35705	-0.570796	-0.0255785	0.0283867	-0.0154532	0.321981	0.290825	0.0501141	-0.129736	-0.0458471	-0.100717	-0.134403	0.297051	0.361774	0.312577	-0.129736	-0.434249	0.0534636	0.0025542	0.064099	-0.266203	0.0604778	0.728754	1.68064	0.00298181	-0.256835	0.109797	0.85342	1.54639
0.14	0.0833323	-0.037832	0.0264478	-1.06416	1.35614	-0.570873	-0.0151048	0.0290309	-0.014997	0.325924	0.29254	0.0488768	-0.129736	-0.0342776	-0.101094	-0.131508	0.302797	0.364546	0.309884	-0.129736	-0.431217	0.0542882	0.00219597	0.0609541	-0.267114	0.0582874	0.729099	1.68513	0.000456166	-0.256908	0.106729	0.853826	1.55214
0.15	0.0748445	-0.0381501	0.0273328	-1.0632	1.35533	-0.570993	-0.00498749	0.0291717	-0.0154746	0.329705	0.294444	0.048706	-0.129736	-0.022781	-0.101044	-0.126698	0.308483	0.366367	0.30649	-0.129736	-0.428882	0.0550757	0.00132477	0.057976	-0.267901	0.0560785	0.730154	1.68357	-0.00162177	-0.257406	0.104738	0.855386	1.55013
0.16	0.0667877	-0.0387615	0.0285287	-1.06215	1.35458	-0.571106	0.00420557	0.0296191	-0.0162778	0.332883	0.296064	0.0486277	-0.129736	-0.0119181	-0.101431	-0.121459	0.313955	0.367914	0.304014	-0.129736	-0.427258	0.0562877	0.000310974	0.0550484	-0.268726	0.0538051	0.73108	1.68421	-0.00378105	-0.25808	0.102376	0.856474	1.55207
0.17	0.0585167	-0.0398161	0.0298875	-1.06102	1.35379	-0.571214	0.0132792	0.0305618	-0.0174115	0.335584	0.297393	0.0482234	-0.129736	-0.000879704	-0.102419	-0.116725	0.319499	0.369699	0.302985	-0.129736	-0.425519	0.0578426	-0.000541786	0.0519	-0.269703	0.0520516	0.732237	1.68396	-0.00603934	-0.258995	0.100399	0.857937	1.55389
0.18	0.0496361	-0.0410346	0.0313293	-1.05987	1.35292	-0.571346	0.0231348	0.0315626	-0.0192884	0.338483	0.298978	0.0483074	-0.129736	0.0110412	-0.10359	-0.112744	0.32548	0.371933	0.302566	-0.129736	-0.423352	0.0594236	-0.00107906	0.0484221	-0.270795	0.0504902	0.733761	1.6832	-0.00805546	-0.260074	0.0992851	0.860485	1.55266
0.19	0.0406864	-0.0417843	0.0327108	-1.05872	1.35203	-0.57152	0.0333543	0.0317648	-0.0221716	0.341935	0.301457	0.0502518	-0.129736	0.0229538	-0.104124	-0.109189	0.331312	0.374059	0.301187	-0.129736	-0.421465	0.0606445	-0.00186991	0.0450586	-0.271862	0.0489683	0.735715	1.68239	-0.0100345	-0.261109	0.098101	0.864842	1.54451
0.2	0.0314816	-0.0421464	0.0340482	-1.05751	1.35113	-0.571703	0.0439134	0.0313568	-0.0254499	0.345632	0.304129	0.0527857	-0.129736	0.0350105	-0.10424	-0.106133	0.337021	0.376273	0.30007	-0.129736	-0.419458	0.0618905	-0.00382427	0.0423925	-0.273069	0.0494984	0.738704	1.67215	-0.0127631	-0.262109	0.0959867	0.871869	1.52014
0.21	0.0222813	-0.0421506	0.0354517	-1.05624	1.35023	-0.571908	0.0544845	0.0304087	-0.0291691	0.349554	0.306991	0.0558126	-0.129736	0.0466699	-0.103792	-0.102856	0.342091	0.378053	0.298519	-0.129736	-0.417549	0.0631584	-0.00657218	0.0400382	-0.274304	0.0497159	0.739501	1.68318	-0.0158449	-0.262613	0.0907798	0.871175	1.54033
0.22	0.0126821	-0.0423847	0.0367721	-1.05492	1.34928	-0.572109	0.0658113	0.029618	-0.0333871	0.354123	0.309965	0.0590108	-0.129736	0.0586403	-0.103411	-0.0996947	0.34707	0.379911	0.296389	-0.129736	-0.41543	0.064641	-0.00874514	0.0373228	-0.275695	0.0505829	0.741751	1.68417	-0.0185904	-0.263463	0.0868756	0.871064	1.55188
0.23	0.00255564	-0.0429293	0.0378792	-1.05359	1.34823	-0.5723	0.0782266	0.029047	-0.038184	0.359527	0.313128	0.062528	-0.129736	0.0714311	-0.103337	-0.0975324	0.35265	0.382401	0.294091	-0.129736	-0.413203	0.0660971	-0.0100106	0.0344663	-0.276871	0.0507622	0.744115	1.6834	-0.0209127	-0.264581	0.0844499	0.871572	1.56128
0.24	-0.00784291	-0.0434042	0.0388974	-1.05229	1.34715	-0.572526	0.0912412	0.0282813	-0.0430216	0.365335	0.316254	0.0660504	-0.129736	0.0848958	-0.103324	-0.0965342	0.358957	0.38531	0.292886	-0.129736	-0.410832	0.0670801	-0.0102233	0.031447	-0.277779	0.0494204	0.745885	1.6822	-0.0223893	-0.265942	0.084563	0.873712	1.56184
0.25	-0.0180406	-0.0438669	0.0399703	-1.05103	1.34607	-0.572803	0.104	0.0275699	-0.0467282	0.370977	0.318771	0.068297	-0.129736	0.0983691	-0.103474	-0.0955791	0.3656	0.388032	0.29358	-0.129736	-0.408322	0.0675373	-0.00841014	0.0274061	-0.278592	0.045533	0.747174	1.68133	-0.0220287	-0.267208	0.0873419	0.875072	1.56216
0.26	-0.0279895	-0.0446005	0.0411407	-1.04977	1.34499	-0.57307	0.116278	0.0274426	-0.0486901	0.376314	0.320567	0.0683247	-0.129736	0.11158	-0.103976	-0.093438	0.372216	0.390389	0.295101	-0.129736	-0.405884	0.0679497	-0.0050908	0.0224468	-0.279467	0.0403983	0.748682	1.68142	-0.0203098	-0.268236	0.0914789	0.876443	1.55693
0.27	-0.0381417	-0.0454333	0.042386	-1.04841	1.34385	-0.573294	0.128633	0.0276339	-0.0495797	0.381719	0.322436	0.0670773	-0.129736	0.124942	-0.10448	-0.0904092	0.378843	0.392813	0.295764	-0.129736	-0.403642	0.0687562	-0.00290435	0.0182591	-0.280624	0.038335	0.751546	1.67325	-0.0194475	-0.269259	0.0944241	0.881308	1.53276
0.28	-0.0486758	-0.0460371	0.0436117	-1.04695	1.3426	-0.573544	0.141546	0.027429	-0.0506547	0.387809	0.325205	0.0666054	-0.129736	0.138735	-0.104532	-0.0877311	0.385769	0.395746	0.294862	-0.129736	-0.401615	0.069903	-0.0031017	0.0159037	-0.281887	0.0389098	0.752352	1.68133	-0.0204877	-0.269943	0.0924184	0.882769	1.53953
0.29	-0.0596054	-0.046439	0.0447917	-1.04543	1.34126	-0.573866	0.155343	0.0266529	-0.0525371	0.395012	0.328779	0.0675303	-0.129736	0.153175	-0.104124	-0.0857398	0.393321	0.399186	0.292498	-0.129736	-0.399426	0.0711894	-0.00434645	0.0146584	-0.283113	0.0411025	0.753549	1.68002	-0.022317	-0.270824	0.0894281	0.885603	1.5422
0.3	-0.0708137	-0.0468738	0.0460338	-1.04392	1.33983	-0.5742	0.170012	0.0257727	-0.054695	0.403299	0.332482	0.0683618	-0.129736	0.168385	-0.103626	-0.083734	0.4018	0.402899	0.289497	-0.129736	-0.397014	0.0725092	-0.00531729	0.013685	-0.283889	0.0416954	0.754302	1.67885	-0.0237303	-0.271637	0.0869512	0.888312	1.54573
0.31	-0.0822271	-0.0473262	0.0473292	-1.04246	1.33829	-0.574476	0.185476	0.0250858	-0.0560651	0.412546	0.336	0.0675891	-0.129736	0.184404	-0.103218	-0.0809852	0.411341	0.40664	0.28716	-0.129736	-0.394514	0.0736165	-0.00569697	0.0127282	-0.284409	0.0410029	0.754899	1.67938	-0.0244408	-0.272302	0.0856406	0.891935	1.54351
0.32	-0.0938296	-0.0474703	0.0484432	-1.04101	1.33662	-0.574733	0.201828	0.0242619	-0.0561238	0.422999	0.339633	0.0652398	-0.129736	0.20117	-0.102534	-0.0772862	0.421954	0.410337	0.2856	-0.129736	-0.391922	0.0740762	-0.00545536	0.0116875	-0.285076	0.0405147	0.755857	1.67924	-0.0245205	-0.272968	0.0853267	0.896817	1.53486
0.33	-0.10582	-0.0470218	0.0492096	-1.03954	1.33475	-0.575052	0.219524	0.0227655	-0.0553411	0.435253	0.343867	0.062256	-0.129736	0.218923	-0.10097	-0.0729499	0.433898	0.414227	0.283028	-0.129736	-0.388931	0.0737832	-0.00495323	0.0106871	-0.28582	0.0402779	0.757047	1.67926	-0.024286	-0.27375	0.0851058	0.901293	1.53071
0.34	-0.118342	-0.0461741	0.0497615	-1.03805	1.33266	-0.575432	0.23895	0.0205948	-0.0546237	0.449853	0.349004	0.0595723	-0.129736	0.238119	-0.098615	-0.0685703	0.447773	0.418613	0.278202	-0.129736	-0.385393	0.0732416	-0.0048189	0.0100589	-0.286618	0.0408079	0.759509	1.67071	-0.0242072	-0.274753	0.0848885	0.906973	1.52122
0.35	-0.130967	-0.0456926	0.0504122	-1.03654	1.33033	-0.575806	0.259618	0.0185674	-0.0543094	0.466782	0.354935	0.0574124	-0.129736	0.25882	-0.0967005	-0.0645769	0.464277	0.42371	0.272744	-0.129736	-0.381884	0.073275	-0.00498514	0.00977668	-0.287542	0.0404119	0.760069	1.68557	-0.0242118	-0.275387	0.0832982	0.910701	1.52773
0.36	-0.143576	-0.046367	0.0513078	-1.03502	1.32779	-0.576129	0.281051	0.0178093	-0.0536801	0.485319	0.360764	0.0539322	-0.129736	0.281349	-0.0965383	-0.0608254	0.483961	0.429954	0.269105	-0.129736	-0.37842	0.0745327	-0.00496591	0.0096362	-0.289009	0.041861	0.762744	1.6878	-0.0240352	-0.275659	0.0815949	0.916962	1.52155
